<svg width="12" height="11" viewBox="0 0 12 11" fill="none" xmlns="http://www.w3.org/2000/svg">
<path d="M11.4336 6.45898L7.37109 10.5215C7.21875 10.6738 7.01562 10.75 6.8125 10.75C6.58398 10.75 6.38086 10.6738 6.22852 10.5215C5.89844 10.2168 5.89844 9.68359 6.22852 9.37891L8.89453 6.6875H1.125C0.667969 6.6875 0.3125 6.33203 0.3125 5.875C0.3125 5.44336 0.667969 5.0625 1.125 5.0625H8.89453L6.22852 2.39648C5.89844 2.0918 5.89844 1.55859 6.22852 1.25391C6.5332 0.923828 7.06641 0.923828 7.37109 1.25391L11.4336 5.31641C11.7637 5.62109 11.7637 6.1543 11.4336 6.45898Z" fill="#1F2A37"/>
</svg>
